<?xml version="1.0" encoding="iso-8859-1"?>
<!-- Generator: Adobe Illustrator 16.0.0, SVG Export Plug-In . SVG Version: 6.00 Build 0)  -->
<!DOCTYPE svg PUBLIC "-//W3C//DTD SVG 1.1//EN" "http://www.w3.org/Graphics/SVG/1.1/DTD/svg11.dtd">
<svg version="1.1" id="Capa_1" xmlns="http://www.w3.org/2000/svg" xmlns:xlink="http://www.w3.org/1999/xlink" x="0px" y="0px"
	 width="79.533px" height="79.533px" viewBox="0 0 79.533 79.533" style="enable-background:new 0 0 79.533 79.533;"
	 xml:space="preserve">
<g>
	<g>
		<path style="fill:#ffffff;" d="M23.076,0v14.289H8.784v54.487l-1.766,1.615c-0.735,0.662-0.79,1.812-0.122,2.542l1.888,2.087
			v3.589h3.241l0.306,0.336c0.663,0.735,1.805,0.787,2.54,0.119l0.51-0.46h43.432V64.308h14.291V0H23.076z M18.26,75.989
			l11.835-10.745c0.738-0.663,0.784-1.822,0.122-2.548l-5.435-6.017c-0.663-0.735-1.812-0.782-2.545-0.119l-10.833,9.833V16.909
			h44.783v12.179c0,0,0,0,0,0.011c-3.465-2.931-7.892-4.767-12.788-4.767c-11.014,0-19.938,8.935-19.938,19.94
			c0,11.01,8.93,19.937,19.938,19.937c4.896,0,9.323-1.833,12.788-4.754v16.539H18.26V75.989z M43.399,58.813
			c-8.028,0-14.535-6.51-14.535-14.541c0-8.025,6.506-14.537,14.535-14.537c8.034,0,14.538,6.517,14.538,14.537
			C57.932,52.304,51.429,58.813,43.399,58.813z M70.479,61.692H58.808v-4.904c0,0-0.006,0-0.006,0.011
			c2.797-3.433,4.542-7.762,4.542-12.526c0-4.758-1.74-9.079-4.531-12.505V14.289H25.693V2.62h44.785V61.692z"/>
	</g>
</g>
<g>
</g>
<g>
</g>
<g>
</g>
<g>
</g>
<g>
</g>
<g>
</g>
<g>
</g>
<g>
</g>
<g>
</g>
<g>
</g>
<g>
</g>
<g>
</g>
<g>
</g>
<g>
</g>
<g>
</g>
</svg>
